<mxfile host="app.diagrams.net" modified="2024-02-04T08:08:29.903Z" agent="Mozilla/5.0 (Windows NT 10.0; Win64; x64) AppleWebKit/537.36 (KHTML, like Gecko) Chrome/121.0.0.0 Safari/537.36 Edg/121.0.0.0" etag="NkRB5gsLasLHSK1xfXG4" version="23.1.1" type="github">
  <diagram name="第 1 页" id="nmpy7Anon7jMR94QmT7i">
    <mxGraphModel dx="815" dy="434" grid="1" gridSize="10" guides="1" tooltips="1" connect="1" arrows="1" fold="1" page="1" pageScale="1" pageWidth="827" pageHeight="1169" math="0" shadow="0">
      <root>
        <mxCell id="0" />
        <mxCell id="1" parent="0" />
        <mxCell id="KHBJohj5CfdymiipmYzo-5" style="edgeStyle=orthogonalEdgeStyle;rounded=0;orthogonalLoop=1;jettySize=auto;html=1;entryX=0.5;entryY=0;entryDx=0;entryDy=0;" edge="1" parent="1" source="KHBJohj5CfdymiipmYzo-1" target="KHBJohj5CfdymiipmYzo-3">
          <mxGeometry relative="1" as="geometry" />
        </mxCell>
        <mxCell id="KHBJohj5CfdymiipmYzo-1" value="" style="rounded=0;whiteSpace=wrap;html=1;" vertex="1" parent="1">
          <mxGeometry x="140" y="130" width="120" height="60" as="geometry" />
        </mxCell>
        <mxCell id="KHBJohj5CfdymiipmYzo-3" value="" style="rounded=1;whiteSpace=wrap;html=1;" vertex="1" parent="1">
          <mxGeometry x="140" y="260" width="120" height="60" as="geometry" />
        </mxCell>
      </root>
    </mxGraphModel>
  </diagram>
</mxfile>
